<svg xmlns="http://www.w3.org/2000/svg" viewBox="0 0 636.45 352.34">
    <defs>
        <style>
            .cls-1{font-size:310px;font-family:Rubik-Light, Rubik;}.cls-1,.cls-3{fill:#b3b3b3;}.cls-2,.cls-4,.cls-5,.cls-6{fill:none;}.cls-2,.cls-3,.cls-4,.cls-5,.cls-6{stroke:#b3b3b3;}.cls-2,.cls-3,.cls-4,.cls-5,.cls-6,.cls-7{stroke-miterlimit:10;}.cls-2{stroke-width:15px;}.cls-3{stroke-width:10px;}.cls-4{stroke-width:8px;}.cls-5{stroke-width:11px;}.cls-6{stroke-width:12px;}.cls-7{stroke:#000;}.cls-7,.cls-8{opacity:0.4;}
        </style>
    </defs>
    <title>
        Asset 1
    </title>
    <g id="Layer_2" data-name="Layer 2">
        <g id="Layer_1-2" data-name="Layer 1">
            <text class="cls-1" transform="translate(0 263.5)">
                4
            </text>
            <circle cx="319.11" cy="155.1" r="108" class="cls-2"/>
            <rect width="4.28" height="5.06" x="393.21" y="128.32" class="cls-3" transform="translate(47.34 -97.87) rotate(15)"/>
            <rect width="4" height="4" x="252.86" y="193.35" class="cls-3" transform="translate(509.71 390.71) rotate(180)"/>
            <text class="cls-1" transform="translate(452 270.5)">
                4
            </text>
            <circle cx="368.61" cy="168.1" r="16" class="cls-4"/>
            <circle cx="281.61" cy="223.1" r="11.5" class="cls-4"/>
            <rect width="4" height="4" x="254.48" y="159.98" class="cls-3" transform="translate(547.67 246.98) rotate(164)"/>
            <rect width="5.09" height="5.09" x="303.94" y="72.43" class="cls-3" transform="translate(530.55 -147.16) rotate(121.5)"/>
            <path d="M364.89,247.59A23,23,0,0,1,371.82,221a23.35,23.35,0,0,1,30.79,2.15" class="cls-5"/>
            <path d="M215.11,124.6c17.35,5.62,35,1.24,44.95-11.15,9.7-12,10.51-29.69,2.09-45.31" class="cls-6"/>
            <path d="M377.26,81.07a2.17,2.17,0,0,0-1.91-1.87A61.43,61.43,0,0,0,348.5,82a60.49,60.49,0,0,0-22.89,14L311,110.32,289.88,113a2.23,2.23,0,0,0-1.27.61l-20.35,20a2.12,2.12,0,0,0-.54,2.16,2.19,2.19,0,0,0,1.69,1.48L284.8,140l3,3-6.43,3.42a2.15,2.15,0,0,0-1.13,1.58,2.12,2.12,0,0,0,.62,1.83l24.41,23.95a2.19,2.19,0,0,0,1.55.63l.32,0a2.2,2.2,0,0,0,1.61-1.11l3.49-6.31,3,3,2.85,15.1a2.16,2.16,0,0,0,1.51,1.66,2.05,2.05,0,0,0,.65.1,2.22,2.22,0,0,0,1.55-.63l20.35-20a2.11,2.11,0,0,0,.62-1.24l2.73-20.71,14.62-14.34a59.2,59.2,0,0,0,14.3-22.46A58.22,58.22,0,0,0,377.26,81.07Zm-92.13,54.62-10.82-2,16.88-16.55,14.72-1.87Zm21.18,33L286.06,148.8l5-2.66,18,17.62Zm32.25-5-16.88,16.55-2-10.61,20.77-20.39Zm18.49-36.82-39.74,39L289,138l39.74-39a56,56,0,0,1,20.57-12.77,25.58,25.58,0,0,0,7.21,13.32,26.38,26.38,0,0,0,13.58,7.08A54.68,54.68,0,0,1,357.05,126.82Zm14.34-24.31a22.07,22.07,0,0,1-11.8-6A21.39,21.39,0,0,1,353.49,85a56.78,56.78,0,0,1,19.6-1.67A54,54,0,0,1,371.39,102.51Z" class="cls-7"/>
            <path d="M289.2,165a2.25,2.25,0,0,0-3.17,0l-19.25,19.25a2.25,2.25,0,0,0,3.18,3.17l19.24-19.24A2.25,2.25,0,0,0,289.2,165Z" class="cls-8"/>
            <path d="M293.16,172.17l-8.67,8.67a2.25,2.25,0,0,0,1.59,3.83,2.21,2.21,0,0,0,1.58-.66l8.68-8.67a2.25,2.25,0,0,0-3.18-3.17Z" class="cls-8"/>
            <path d="M282.49,158.48a2.23,2.23,0,0,0-3.17,0l-8.67,8.67a2.24,2.24,0,1,0,3.17,3.17l8.67-8.67A2.23,2.23,0,0,0,282.49,158.48Z" class="cls-8"/>
        </g>
    </g>
</svg>
