<svg width="200" height="169" viewBox="0 0 200 169" fill="none" xmlns="http://www.w3.org/2000/svg">
<rect x="6.10352e-05" y="84.1457" width="119" height="35" rx="2" transform="rotate(-45 6.10352e-05 84.1457)" fill="#0008CE"/>
<rect x="6.10352e-05" y="84.1457" width="119" height="35" rx="2" transform="rotate(-45 6.10352e-05 84.1457)" fill="#0008CE"/>
<rect x="6.10352e-05" y="84.1457" width="119" height="35" rx="2" transform="rotate(-45 6.10352e-05 84.1457)" fill="#0008CE"/>
<rect x="31.0001" y="66.0004" width="169" height="35" rx="2" fill="#0008CE"/>
<rect x="31.0001" y="66.0004" width="169" height="35" rx="2" fill="#0008CE"/>
<rect x="31.0001" y="66.0004" width="169" height="35" rx="2" fill="#0008CE"/>
<rect x="25.1404" y="59.9607" width="119" height="35" rx="2" transform="rotate(45 25.1404 59.9607)" fill="#0008CE"/>
<rect x="25.1404" y="59.9607" width="119" height="35" rx="2" transform="rotate(45 25.1404 59.9607)" fill="#0008CE"/>
<rect x="25.1404" y="59.9607" width="119" height="35" rx="2" transform="rotate(45 25.1404 59.9607)" fill="#0008CE"/>
</svg>
