<?xml version="1.0" encoding="iso-8859-1"?>
<!--Generator: Adobe Illustrator 19.0.0, SVG Export Plug-In . SVG Version: 6.00 Build 0)-->
<svg xmlns="http://www.w3.org/2000/svg" xmlns:xlink="http://www.w3.org/1999/xlink" id="Capa_1" x="0px" y="0px" fill="rgba(0,0,0,0.4)" style="enable-background:new 0 0 511.999 511.999" version="1.1" viewBox="0 0 511.999 511.999" xml:space="preserve">
    <g>
        <g>
            <path d="M480.031,133.191c-2.159-6.522-6.615-12.001-12.555-15.431L335.142,41.359c-3.589-2.07-8.176-0.844-10.246,2.745
			c-2.071,3.587-0.842,8.175,2.745,10.246c142.381,82.202,134.628,76.846,137.107,81.21c-2.783,4.914,9.093-3.185-202.274,118.847
			c-3.932,2.27-9.017,2.272-12.95-0.001C39.929,133.397,49.92,140.273,47.251,135.559c2.482-4.369-11.345,4.498,202.275-118.834
			c3.992-2.307,8.956-2.307,12.95,0l43.617,25.183c3.585,2.068,8.176,0.842,10.246-2.745c2.071-3.587,0.842-8.175-2.745-10.246
			L269.976,3.735c-8.622-4.979-19.333-4.979-27.952,0L44.523,117.76c-8.913,5.145-13.976,14.555-13.976,24.208v156.389
			c0,4.143,3.357,7.501,7.501,7.501c4.143,0,7.501-3.357,7.501-7.501V153.963l196.473,113.433c0.521,0.301,1.052,0.584,1.59,0.85
			c0.164,0.081,0.334,0.15,0.499,0.228c0.377,0.177,0.753,0.355,1.137,0.515c0.209,0.087,0.422,0.161,0.633,0.242
			c0.347,0.135,0.693,0.272,1.045,0.393c0.231,0.079,0.465,0.145,0.698,0.218c0.292,0.092,0.581,0.192,0.875,0.274v224.555
			L52.025,381.24c-3.994-2.308-6.477-6.607-6.477-11.219v-46.329c0-4.143-3.357-7.501-7.501-7.501c-4.143,0-7.501,3.357-7.501,7.501
			v46.329c0,9.953,5.354,19.23,13.976,24.209l197.498,114.024c4.24,2.45,9.074,3.745,13.978,3.745c4.902,0,9.736-1.295,13.977-3.744
			l197.5-114.026c8.62-4.978,13.975-14.254,13.975-24.208V141.969C481.451,136.821,479.894,132.778,480.031,133.191z
			 M466.451,370.022c-0.001,4.612-2.482,8.911-6.476,11.218L263.5,494.672V270.116c6.815-1.899,2.885-0.646,202.951-116.154V370.022
			z"/>
        </g>
    </g>
    <g>
        <g>
            <path d="M255.919,112.602c-18.833,0-33.585,11.106-33.585,25.285c0,14.179,14.752,25.285,33.585,25.285
			c18.833,0,33.585-11.106,33.585-25.285C289.503,123.707,274.751,112.602,255.919,112.602z M255.919,148.17
			c-10.637,0-18.584-5.429-18.584-10.284c0-4.854,7.947-10.284,18.584-10.284c10.637,0,18.584,5.428,18.584,10.284
			C274.502,142.741,266.556,148.17,255.919,148.17z"/>
        </g>
    </g>
    <g>
        <g>
            <path d="M126.839,248.641c-3.504-24.748-35.353-37.492-51.065-20.072c-9.833,10.91-7.711,28.909,4.73,40.124l-0.001-0.001
			c12.457,11.23,30.578,11.452,40.397,0.558C125.837,263.775,127.946,256.455,126.839,248.641z M90.549,257.551
			c-6.192-5.581-7.855-14.253-3.633-18.938c1.863-2.067,4.618-3.073,7.648-3.073c3.833,0,8.105,1.612,11.564,4.729
			c3.234,2.915,5.314,6.635,5.857,10.473C113.678,262.678,99.983,266.059,90.549,257.551z"/>
        </g>
    </g>
    <g>
        <g>
            <path d="M174.07,325.199c-1.034-7.317-4.823-14.247-10.667-19.515c-5.844-5.267-13.128-8.318-20.513-8.593
			c-7.889-0.286-14.949,2.562-19.885,8.037c-10.134,11.241-7.437,29.157,4.729,40.124
			C148.119,363.623,177.675,350.663,174.07,325.199z M137.78,334.11c-6.303-5.68-7.838-14.271-3.631-18.937
			c2.056-2.281,5.105-3.212,8.187-3.09c3.874,0.144,7.79,1.828,11.024,4.744c3.234,2.915,5.314,6.636,5.859,10.475
			C160.897,339.159,147.311,342.701,137.78,334.11z"/>
        </g>
    </g>
    <g>
        <g>
            <path d="M221.302,401.756c-3.51-24.808-35.386-37.458-51.064-20.071c-10.133,11.24-7.441,29.153,4.73,40.124
			c5.891,5.309,13.548,8.613,21.61,8.613c7.443-0.001,14.081-2.838,18.786-8.058C220.3,416.89,222.408,409.572,221.302,401.756z
			 M204.221,412.321c-4.237,4.703-12.956,3.983-19.21-1.653c0-0.001,0-0.001,0-0.001c-9.337-8.416-7.561-22.011,4.017-22.011
			c8.097,0,16.253,6.952,17.42,15.202C206.923,407.199,206.132,410.204,204.221,412.321z"/>
        </g>
    </g>
    <g>
        <g>
            <path d="M436.208,228.569c-9.834-10.905-27.955-10.654-40.397,0.559c-5.844,5.267-9.632,12.197-10.668,19.514
			c-1.106,7.815,1.003,15.135,5.938,20.611c4.829,5.353,11.652,8.02,18.822,8.02c7.436,0,15.243-2.868,21.576-8.578
			C443.92,257.48,446.043,239.481,436.208,228.569z M421.435,257.55c0,0.001,0,0.001-0.001,0.001
			c-6.19,5.582-14.987,6.336-19.21,1.655c-1.909-2.118-2.7-5.123-2.226-8.464c0.543-3.838,2.623-7.558,5.857-10.474
			c3.459-3.117,7.731-4.729,11.564-4.729c3.027,0,5.782,1.007,7.647,3.072C429.289,243.298,427.627,251.97,421.435,257.55z"/>
        </g>
    </g>
    <g>
        <g>
            <path d="M341.747,283.64c-9.831-10.907-27.954-10.661-40.398,0.556c-12.172,10.971-14.859,28.888-4.729,40.122
			c15.836,17.567,47.595,4.454,51.065-20.07C348.79,296.433,346.682,289.113,341.747,283.64z M326.971,312.62
			c-6.286,5.668-14.991,6.333-19.212,1.653c-4.211-4.671-2.658-13.266,3.632-18.936c6.191-5.578,14.988-6.339,19.212-1.653
			C334.808,298.347,333.277,306.937,326.971,312.62z"/>
        </g>
    </g>
    <g>
        <g>
            <path d="M341.746,381.687c-15.669-17.382-47.553-4.744-51.064,20.07c-3.542,25.015,25.586,38.755,46.334,20.054
			c5.843-5.267,9.633-12.197,10.669-19.515C348.79,394.48,346.681,387.16,341.746,381.687z M326.973,410.666
			c-6.362,5.734-15.034,6.287-19.211,1.653c-4.206-4.664-2.669-13.256,3.63-18.936c6.197-5.582,14.994-6.336,19.213-1.653
			C334.811,396.397,333.273,404.987,326.973,410.666z"/>
        </g>
    </g>
    <g>
        <g>
            <path d="M395.811,327.172c-12.44,11.216-14.562,29.215-4.728,40.123c4.705,5.22,11.343,8.058,18.786,8.058
			c0.364,0,0.731-0.007,1.1-0.021c15.267-0.565,29.035-12.966,31.18-28.106C445.743,321.851,416.2,308.801,395.811,327.172z
			 M421.435,355.596c-6.419,5.786-15.073,6.241-19.211,1.655c-6.925-7.682,2.255-23.666,15.194-23.666
			C429.049,333.586,430.734,347.218,421.435,355.596z"/>
        </g>
    </g>
    <g/>
    <g/>
    <g/>
    <g/>
    <g/>
    <g/>
    <g/>
    <g/>
    <g/>
    <g/>
    <g/>
    <g/>
    <g/>
    <g/>
    <g/>
</svg>
