<svg width="59" height="59" viewBox="0 0 59 59" fill="none" xmlns="http://www.w3.org/2000/svg">
<path d="M13.7334 18.9147H1.88911C1.36344 18.9147 0.9375 19.3408 0.9375 19.8663V57.9171C0.9375 58.4427 1.36344 58.8687 1.88911 58.8687H13.7334C14.2591 58.8687 14.685 58.4427 14.685 57.9171V19.8663C14.685 19.3408 14.2591 18.9147 13.7334 18.9147Z" fill="#0008CE"/>
<path d="M7.81574 0C3.5061 0 0 3.50229 0 7.80715C0 12.1139 3.5061 15.6175 7.81574 15.6175C12.122 15.6175 15.6252 12.1137 15.6252 7.80715C15.6254 3.50229 12.122 0 7.81574 0Z" fill="#0008CE"/>
<path d="M43.8607 17.9712C39.1037 17.9712 35.5871 20.0162 33.4542 22.3398V19.8685C33.4542 19.343 33.0283 18.9169 32.5026 18.9169H21.1597C20.634 18.9169 20.2081 19.343 20.2081 19.8685V57.9191C20.2081 58.4448 20.634 58.8707 21.1597 58.8707H32.978C33.5037 58.8707 33.9296 58.4448 33.9296 57.9191V39.0929C33.9296 32.7489 35.6528 30.2774 40.0751 30.2774C44.8913 30.2774 45.2741 34.2395 45.2741 39.4193V57.9193C45.2741 58.445 45.7 58.8709 46.2257 58.8709H58.0484C58.5741 58.8709 59 58.445 59 57.9193V37.0479C59 27.6146 57.2013 17.9712 43.8607 17.9712Z" fill="#0008CE"/>
</svg>
