<svg width="63" height="62" viewBox="0 0 63 62" fill="none" xmlns="http://www.w3.org/2000/svg">
<path d="M31.623 0C14.5131 0 0.593018 13.8259 0.593018 30.8199C0.593018 47.8127 14.5131 61.6398 31.623 61.6398C48.7316 61.6398 62.653 47.8127 62.653 30.8199C62.653 13.8259 48.7341 0 31.623 0ZM45.4657 23.7661C45.4794 24.0715 45.4869 24.3793 45.4869 24.6872C45.4869 34.0613 38.305 44.8668 25.1648 44.8668C21.1314 44.8668 17.3767 43.6961 14.2169 41.6825C14.7756 41.7483 15.3443 41.7818 15.9205 41.7818C19.2678 41.7818 22.3463 40.6471 24.7911 38.7453C21.6663 38.6881 19.0278 36.6373 18.1191 33.818C18.5541 33.8999 19.0028 33.9459 19.4615 33.9459C20.1127 33.9459 20.7451 33.8614 21.3438 33.6988C18.0766 33.0483 15.6156 30.1818 15.6156 26.743C15.6156 26.7132 15.6156 26.6822 15.6168 26.6537C16.5792 27.1837 17.6804 27.504 18.8503 27.54C16.9355 26.2701 15.6743 24.0975 15.6743 21.637C15.6743 20.336 16.0255 19.1169 16.6405 18.0691C20.1614 22.362 25.426 25.185 31.3605 25.483C31.238 24.9628 31.1768 24.4228 31.1768 23.8654C31.1768 19.9487 34.374 16.7718 38.3175 16.7718C40.3723 16.7718 42.2259 17.6334 43.5308 19.0114C45.1594 18.6936 46.6843 18.1051 48.0679 17.2895C47.5305 18.9468 46.4018 20.336 44.9232 21.2149C46.3693 21.0436 47.7492 20.6637 49.0254 20.0989C48.0729 21.5191 46.8618 22.7692 45.4657 23.7661Z" fill="#0008CE"/>
</svg>
